<?xml version="1.0" encoding="UTF-8"?>
<svg id="_x31__-_COLOR" xmlns="http://www.w3.org/2000/svg" version="1.1" viewBox="0 0 1920 1080">
  <!-- Generator: Adobe Illustrator 29.6.0, SVG Export Plug-In . SVG Version: 2.1.1 Build 207)  -->
  <defs>
    <style>
      .st0 {
        fill: #eb3c46;
      }

      .st1 {
        fill: #0f69b4;
      }
    </style>
  </defs>
  <g>
    <rect class="st1" x="285.62" y="698.09" width="252.21" height="58.66"/>
    <rect class="st0" x="536.96" y="698.09" width="307.43" height="58.66"/>
  </g>
  <g>
    <path class="st1" d="M465.01,551.14c-5.49.87-10.64,1.19-15.35,1.19-37.36,0-62.68-17.4-69.06-23.2-13.67-12.01-26.43-32.31-26.43-60.89,0-26.51,11.84-48.88,28.71-63.79,15.95-14.08,39.9-21.54,65.42-21.54,6.38,0,12.39.58,18.07,1.6,15.39,2.03,32.74,6.56,53.01,14.92v-60.84c-29.62-11.6-52.86-15.33-72.91-15.33-47.39,0-86.58,16.16-113.46,39.77-27.34,24.03-47.39,60.48-47.39,103.98s20.05,80.77,47.39,104.8c25.52,22.78,63.34,40.18,119.39,40.18,18.23,0,40.1-2.48,66.98-14.91v-61.01c-20.87,8.61-38.64,13.15-54.37,15.09"/>
    <path class="st1" d="M644.09,405.69c-11.41,11.6-23.22,31.89-23.22,62.55,0,25.27,7.87,45.57,24.01,62.13,16.92,16.99,35.82,22.79,56.28,22.79,26.76,0,45.66-10.36,58.25-23.61,10.23-10.35,22.83-29.83,22.83-61.72,0-28.58-11.02-49.71-22.83-62.13-12.99-13.26-33.85-23.61-57.86-23.61s-43.29,8.7-57.46,23.61M803.49,363.44c24.79,25.27,40.93,61.72,40.93,104.39,0,36.86-12.59,74.56-40.93,103.56-24.4,24.85-57.46,40.59-101.54,40.59-49.19,0-82.65-20.71-102.33-40.59-25.18-24.86-40.93-62.13-40.93-102.73s16.92-79.95,40.53-104.8c17.71-18.64,50.38-40.59,102.72-40.59,40.93,0,75.17,13.26,101.54,40.18"/>
    <path class="st1" d="M955.75,454.98h14.49c11.6,0,27.35-1.25,38.11-12.02,4.56-4.55,10.36-13.25,10.36-26.92,0-15.74-7.46-24.02-12.84-28.17-10.36-7.87-26.93-8.7-35.21-8.7h-14.91v75.81ZM988.88,329.47c35.21,0,57.16,11.6,70.42,24.02,11.6,11.19,24.03,31.07,24.03,61.72,0,17.4-3.73,38.94-21.54,56.34-9.53,9.11-23.2,17.4-38.52,21.13l84.91,113.08h-77.87l-74.56-108.95v108.95h-63.79v-276.29h96.93Z"/>
    <polygon class="st1" points="1321.62 383.32 1214.91 383.32 1214.91 436.75 1308.09 436.75 1308.09 490.6 1214.91 490.6 1214.91 605.76 1151.12 605.76 1151.12 329.47 1321.62 329.47 1321.62 383.32"/>
    <path class="st1" d="M1434.06,405.69c-11.41,11.6-23.22,31.89-23.22,62.55,0,25.27,7.87,45.57,24.01,62.13,16.92,16.99,35.81,22.79,56.28,22.79,26.76,0,45.65-10.36,58.25-23.61,10.24-10.35,22.83-29.83,22.83-61.72,0-28.58-11.02-49.71-22.83-62.13-12.98-13.26-33.85-23.61-57.85-23.61s-43.29,8.7-57.46,23.61M1593.45,363.44c24.79,25.27,40.93,61.72,40.93,104.39,0,36.86-12.59,74.56-40.93,103.56-24.41,24.85-57.46,40.59-101.54,40.59-49.2,0-82.65-20.71-102.33-40.59-25.19-24.86-40.93-62.13-40.93-102.73s16.93-79.95,40.54-104.8c17.71-18.64,50.38-40.59,102.72-40.59,40.93,0,75.17,13.26,101.54,40.18"/>
  </g>
</svg>